<?xml version="1.0" encoding="utf-8"?>
<!-- Generator: Adobe Illustrator 24.0.1, SVG Export Plug-In . SVG Version: 6.00 Build 0)  -->
<svg version="1.1" id="Icons" xmlns="http://www.w3.org/2000/svg" xmlns:xlink="http://www.w3.org/1999/xlink" x="0px" y="0px"
	 viewBox="0 0 32 32" style="enable-background:new 0 0 32 32;" xml:space="preserve">
<style type="text/css">
	.st0{fill:none;stroke:#FFFFFF;stroke-width:2;stroke-linecap:round;stroke-linejoin:round;stroke-miterlimit:10;}
</style>
<path class="st0" d="M12.6,6.7c0,4.9-5.7,9.3-5.7,9.3s-5.7-4.3-5.7-9.3c0-3.1,2.5-5.6,5.7-5.6S12.6,3.7,12.6,6.7z"/>
<ellipse class="st0" cx="6.9" cy="6.7" rx="1.1" ry="1.1"/>
<path class="st0" d="M30.8,21.6c0,4.9-5.7,9.3-5.7,9.3s-5.7-4.3-5.7-9.3c0-3.1,2.5-5.6,5.7-5.6S30.8,18.5,30.8,21.6z"/>
<ellipse class="st0" cx="25.1" cy="21.6" rx="1.1" ry="1.1"/>
<path class="st0" d="M11.9,4.1c1.3-0.5,2.6-0.7,4.1-0.7c5.7,0,10.6,3.9,12.1,9.1"/>
<path class="st0" d="M21.6,27.2c-1.7,0.9-3.5,1.4-5.6,1.4c-5.7,0-10.6-3.9-12.1-9.1"/>
</svg>
