<svg width="35" height="35" viewBox="0 0 35 35" fill="none" xmlns="http://www.w3.org/2000/svg">
<path d="M24.875 4.20812C25.258 3.8251 25.7127 3.52127 26.2132 3.31398C26.7136 3.10669 27.25 3 27.7917 3C28.3333 3 28.8697 3.10669 29.3702 3.31398C29.8706 3.52127 30.3253 3.8251 30.7083 4.20812C31.0914 4.59115 31.3952 5.04586 31.6025 5.5463C31.8098 6.04674 31.9165 6.58311 31.9165 7.12479C31.9165 7.66646 31.8098 8.20284 31.6025 8.70328C31.3952 9.20372 31.0914 9.65843 30.7083 10.0415L11.0208 29.729L3 31.9165L5.1875 23.8956L24.875 4.20812Z" stroke="#FFFBFB" stroke-width="2" stroke-linecap="round" stroke-linejoin="round"/>
</svg>
