<svg id="b96dd678-4b4d-43cd-b2e1-433b09d13e07" data-name="Layer 1" xmlns="http://www.w3.org/2000/svg" width="24" height="24" viewBox="0 0 24 24">
  <title>crosshair</title>
  <g>
    <path d="M11.24,2.82v2.3h1.52V.53H11.24Z" fill="#fff"/>
    <path d="M9,2.55a7.72,7.72,0,0,0-1.47.62A9.87,9.87,0,0,0,2.57,8.92c-.1.28-.19.58-.21.65l0,.14H3.91L4,9.31A8.53,8.53,0,0,1,9.31,4l.4-.13V3.13c0-.6,0-.79-.06-.79S9.31,2.44,9,2.55Z" fill="#fff"/>
    <path d="M14.29,3.12v.79l.4.13A8.49,8.49,0,0,1,19,7.36a9.81,9.81,0,0,1,1,2l.13.4h1.58l0-.16c0-.08-.13-.43-.24-.77A10,10,0,0,0,15.1,2.57l-.65-.2-.16,0Z" fill="#fff"/>
    <path d="M.53,12v.76H5.12V11.24H.53Z" fill="#fff"/>
    <path d="M18.88,12v.76h4.59V11.24H18.88Z" fill="#fff"/>
    <path d="M2.37,14.45a12.23,12.23,0,0,0,.76,2,10,10,0,0,0,5.87,5l.66.2a2.6,2.6,0,0,0,.05-.79v-.78L9.31,20a9.81,9.81,0,0,1-1.95-1A8.49,8.49,0,0,1,4,14.69l-.13-.4H2.33Z" fill="#fff"/>
    <path d="M20,14.69a10.08,10.08,0,0,1-1,2A8.53,8.53,0,0,1,14.69,20l-.4.13v.78a4.19,4.19,0,0,0,0,.79l.45-.12a9.92,9.92,0,0,0,4.34-2.64A9.37,9.37,0,0,0,21,16.23a11.83,11.83,0,0,0,.69-1.89,2.6,2.6,0,0,0-.79-.05h-.78Z" fill="#fff"/>
    <path d="M11.24,21.18v2.29h1.52V18.88H11.24Z" fill="#fff"/>
  </g>
</svg>
